<svg xmlns="http://www.w3.org/2000/svg" viewBox="0 0 32 32" role="img" aria-label="WhatsApp Marketing">
  <defs>
    <linearGradient id="bg" x1="0%" y1="0%" x2="100%" y2="100%">
      <stop offset="0%" style="stop-color:#25D366"/>
      <stop offset="100%" style="stop-color:#128C7E"/>
    </linearGradient>
  </defs>
  <rect width="32" height="32" rx="8" fill="url(#bg)"/>
  <path fill="#ffffff" d="M16 7c-4.97 0-9 3.8-9 8.48 0 1.49.39 2.9 1.08 4.13L7 25l5.55-1.45c1.17.64 2.5.98 3.9.98 4.97 0 9-3.8 9-8.48S20.97 7 16 7zm4.85 11.38c-.21.6-1.22 1.15-1.68 1.22-.43.07-.98.1-1.58-.1-.36-.12-.84-.27-1.45-.53-2.55-1.1-4.2-3.68-4.32-3.86-.12-.18-1.03-1.35-1.03-2.58 0-1.23.65-1.84.88-2.09.23-.25.5-.31.67-.31.17 0 .34 0 .49.01.16.01.37-.06.58.44.21.5.72 1.76.78 1.89.07.13.11.28.02.45-.09.17-.14.28-.28.43-.14.15-.29.33-.42.45-.14.12-.29.25-.12.49.17.24.76 1.25 1.63 2.03 1.12.99 2.06 1.3 2.37 1.45.31.15.49.13.67-.08.18-.21.77-.9.98-1.21.21-.31.42-.26.7-.16.29.1 1.82.86 2.13 1.02.31.16.52.24.6.37.08.13.08.76-.19 1.36z"/>
</svg>
